# Blender v2.69 (sub 0) OBJ File: ''
# www.blender.org
v 0.000000 1.000000 1.000000
v 0.000000 1.000000 0.000000
v 0.000000 0.000000 0.000000
v 1.000000 1.000000 0.000000
v 1.000000 0.000000 0.000000
v 1.000000 1.000000 1.000000
v 1.000000 -0.000000 1.000000
v 0.000000 -0.000000 1.000000
vt 0.000000 0.000000
vt 0.000000 -0.500000
vt -0.500000 -0.500000
vt 0.500000 0.000000
vt 1.000000 0.000000
vt 1.000000 -0.500000
vt 0.000000 0.500000
vt 0.000000 1.000000
vt -0.500000 1.000000
vt 0.500000 -0.500000
vt 0.500000 0.500000
vt 0.500000 1.000000
vt 1.000000 0.500000
vt -0.500000 0.000000
vn -1.000000 0.000000 0.000000
vn 0.000000 0.000000 -1.000000
vn 1.000000 0.000000 0.000000
vn 0.000000 -0.000000 1.000000
vn 0.000000 -1.000000 -0.000000
vn 0.000000 1.000000 0.000000
s off
f 1/1/1 2/2/1 3/3/1
f 2/4/2 4/5/2 5/6/2
f 4/7/3 6/8/3 7/9/3
f 1/4/4 8/10/4 6/5/4
f 8/4/5 3/10/5 5/6/5
f 6/1/6 4/2/6 2/3/6
f 8/4/1 1/5/1 3/10/1
f 3/11/2 2/12/2 5/13/2
f 5/11/3 4/13/3 7/12/3
f 6/1/4 8/3/4 7/2/4
f 7/1/5 8/14/5 5/2/5
f 1/4/6 6/5/6 2/10/6
